<svg version="1.1" id="Layer_1" xmlns="http://www.w3.org/2000/svg" xmlns:xlink="http://www.w3.org/1999/xlink" x="0px" y="0px"
	 width="100%" viewBox="0 0 2048 2048" enable-background="new 0 0 2048 2048" xml:space="preserve">
<path fill="#000000" opacity="1.000000" stroke="none" 
	d="
M1199.000000,2049.000000 
	C799.333313,2049.000000 400.166656,2049.000000 1.000000,2049.000000 
	C1.000000,1366.333374 1.000000,683.666687 1.000000,1.000000 
	C683.666687,1.000000 1366.333374,1.000000 2049.000000,1.000000 
	C2049.000000,683.666687 2049.000000,1366.333374 2049.000000,2049.000000 
	C1765.833374,2049.000000 1482.666626,2049.000000 1199.000000,2049.000000 
M592.681519,1345.983643 
	C570.064270,1337.665039 547.663025,1328.981934 526.881409,1316.443726 
	C506.857819,1304.363159 488.137665,1290.803589 472.047882,1273.280640 
	C475.190216,1270.835815 478.293945,1268.389404 481.430695,1265.986084 
	C491.166138,1258.527100 500.360596,1250.171997 510.785706,1243.847168 
	C526.822815,1234.117188 543.454712,1225.267944 560.307068,1217.010010 
	C576.252075,1209.196533 592.765503,1202.530884 609.103149,1195.533936 
	C629.962097,1186.600708 651.900757,1181.755371 674.463196,1181.171021 
	C696.648560,1180.596558 718.875183,1181.612915 741.083679,1181.933594 
	C742.916138,1181.959961 744.764099,1181.863159 746.578247,1182.063965 
	C760.846130,1183.642944 775.104370,1185.309082 789.372253,1186.887939 
	C796.664551,1187.694824 804.029541,1188.018555 811.256287,1189.203247 
	C821.236389,1190.839233 831.080627,1193.292480 841.048889,1195.015015 
	C855.390503,1197.493286 868.989502,1201.706055 881.902161,1208.700562 
	C893.949951,1215.226685 906.775452,1220.300049 919.018860,1226.487427 
	C931.320251,1232.703613 943.349731,1239.461426 955.446350,1246.077148 
	C959.166992,1248.111938 962.990173,1250.114868 966.289490,1252.733398 
	C974.081055,1258.916992 981.676697,1265.357666 989.184204,1271.886841 
	C998.879700,1280.319092 1009.445557,1288.045776 1017.774841,1297.685181 
	C1030.566406,1312.488525 1044.327026,1326.054932 1059.695435,1338.047363 
	C1062.965210,1340.598999 1067.056885,1342.137207 1070.184570,1344.823730 
	C1081.946167,1354.926270 1095.274414,1362.584351 1108.836426,1369.806885 
	C1122.077393,1376.858398 1135.432251,1383.775757 1149.132446,1389.862305 
	C1162.531494,1395.814941 1176.119995,1401.748535 1190.185547,1405.692749 
	C1208.483154,1410.823486 1227.286987,1414.219360 1245.965332,1417.892700 
	C1255.657104,1419.798706 1265.512085,1421.173096 1275.358887,1421.904419 
	C1284.168213,1422.558716 1293.067871,1421.938354 1301.927002,1421.996948 
	C1309.480957,1422.046997 1317.039551,1422.519043 1324.585938,1422.349243 
	C1337.968628,1422.048096 1351.346924,1421.473755 1364.719727,1420.856201 
	C1368.767212,1420.669312 1372.876831,1420.334351 1376.807983,1419.421143 
	C1386.721069,1417.118164 1396.421997,1413.348511 1406.441650,1412.193359 
	C1419.935181,1410.637817 1433.053955,1407.594604 1445.709229,1403.323242 
	C1466.570923,1396.282227 1487.256958,1388.506348 1507.420532,1379.678101 
	C1524.693481,1372.115479 1541.291748,1362.941284 1557.895996,1353.940186 
	C1578.283447,1342.888550 1596.367798,1328.606445 1613.021973,1312.524536 
	C1620.363159,1305.435669 1627.580078,1298.210693 1634.666870,1290.867432 
	C1644.989136,1280.171631 1646.281006,1265.764404 1637.831055,1254.837280 
	C1632.994507,1248.582886 1626.665405,1243.321533 1620.419189,1238.353760 
	C1609.403564,1229.592896 1598.486450,1220.504150 1586.536499,1213.167725 
	C1566.410767,1200.812256 1545.798096,1189.164795 1524.845947,1178.265991 
	C1507.164185,1169.068604 1488.880737,1160.955200 1470.534180,1153.135132 
	C1459.304810,1148.348511 1447.702515,1143.881470 1435.826904,1141.289185 
	C1414.601196,1136.655396 1393.042603,1133.547119 1371.647095,1129.805542 
	C1375.424927,1124.778809 1379.957886,1119.218994 1383.981201,1113.312256 
	C1401.271606,1087.926758 1416.842285,1061.478882 1428.337891,1032.987671 
	C1436.518677,1012.712463 1443.364868,991.847534 1449.790894,970.933716 
	C1454.100708,956.907593 1456.962402,942.400696 1459.832764,927.981628 
	C1461.500366,919.605164 1461.946899,910.981689 1462.858765,902.460388 
	C1463.292236,898.408813 1463.568481,894.338989 1463.847900,890.272766 
	C1464.702881,877.832275 1468.021851,865.404785 1464.002686,852.936768 
	C1460.842163,843.132690 1455.685669,834.726196 1445.069702,832.283508 
	C1437.648926,830.575867 1429.830444,830.380676 1422.165894,830.031738 
	C1417.737061,829.830200 1413.265259,830.734131 1408.805176,831.018494 
	C1398.155518,831.697571 1387.420898,831.697388 1376.869263,833.093933 
	C1363.680054,834.839600 1350.629150,837.654175 1337.537109,840.106506 
	C1308.709351,845.506409 1281.102173,854.986328 1254.617310,867.240662 
	C1225.554932,880.687683 1198.194458,897.184692 1175.502441,920.268250 
	C1169.286011,926.592041 1166.031006,933.995972 1167.657104,943.811829 
	C1170.717651,962.286682 1193.318970,969.618042 1206.340698,959.821533 
	C1213.395752,954.513916 1219.625488,948.108643 1226.683960,942.806335 
	C1245.214355,928.886414 1265.336304,917.647095 1286.773438,908.852417 
	C1305.801025,901.046265 1325.403320,895.153992 1345.495239,890.572937 
	C1365.697388,885.966797 1386.135864,883.684021 1406.684326,881.875061 
	C1408.742676,881.693909 1410.830688,881.850830 1413.745605,881.850830 
	C1412.403809,892.026489 1411.408691,901.258545 1409.926636,910.411682 
	C1407.765259,923.760742 1405.979614,937.231567 1402.756958,950.336487 
	C1392.601807,991.630737 1375.926147,1030.342041 1353.739380,1066.539673 
	C1337.593140,1092.881958 1318.213501,1116.897827 1296.431885,1138.800171 
	C1286.774536,1148.510986 1276.223511,1157.451294 1265.372192,1165.826904 
	C1251.677979,1176.396729 1237.741455,1186.807983 1223.043579,1195.885742 
	C1201.989014,1208.889526 1179.572144,1219.529907 1155.893066,1226.868408 
	C1139.105469,1232.071045 1121.887329,1235.939697 1104.752808,1239.938232 
	C1098.512329,1241.394653 1091.957642,1241.504028 1085.402222,1242.244263 
	C1093.051025,1229.369629 1100.674316,1217.107422 1107.739624,1204.531616 
	C1124.599854,1174.521484 1137.894043,1142.972168 1146.977905,1109.751465 
	C1151.362183,1093.717407 1155.245483,1077.533325 1158.854248,1061.305664 
	C1160.781738,1052.638184 1161.886108,1043.761719 1162.915771,1034.927612 
	C1163.898804,1026.493530 1164.310669,1017.992493 1164.958618,1009.519714 
	C1165.619507,1000.878418 1166.649536,992.242798 1166.806030,983.591736 
	C1166.968872,974.593750 1166.399658,965.574219 1165.932129,956.575439 
	C1165.385986,946.059204 1164.944458,935.519043 1163.834229,925.055481 
	C1162.574219,913.182617 1161.282593,901.244385 1158.826172,889.582886 
	C1154.709229,870.040100 1150.712280,850.365417 1144.777344,831.334900 
	C1133.148315,794.046448 1116.868042,758.731995 1094.912964,726.277283 
	C1086.675781,714.100769 1077.789307,702.350830 1068.895874,690.636353 
	C1064.648193,685.041260 1059.903320,679.778381 1054.996582,674.742126 
	C1050.498047,670.124817 1045.833008,665.513184 1040.594727,661.815125 
	C1034.835693,657.749573 1027.662354,658.117676 1021.246643,659.570923 
	C1011.359375,661.810425 1003.097412,666.782654 996.844238,675.525696 
	C987.553101,688.516541 976.574097,700.315369 967.489380,713.435730 
	C947.091736,742.894714 928.577332,773.460815 913.851562,806.302429 
	C904.858643,826.358582 896.849060,846.681213 891.166626,867.865967 
	C888.507141,877.780884 887.013184,888.010254 885.039795,898.106689 
	C883.246338,907.281860 881.880493,916.490662 884.058899,925.800720 
	C884.563232,927.956116 885.336731,930.048462 886.408081,933.546448 
	C882.793152,930.554810 880.467468,928.329773 877.854736,926.518738 
	C865.222290,917.762573 852.644531,908.917236 839.802246,900.476440 
	C814.872009,884.090820 788.054199,871.333191 760.484802,860.110107 
	C735.576721,849.970276 709.726135,842.834534 683.710266,836.219299 
	C675.145203,834.041382 666.805176,830.872925 658.167908,829.108704 
	C644.688477,826.355347 631.106689,823.874023 617.451721,822.270325 
	C602.065308,820.463379 589.549438,824.665833 583.159485,841.709229 
	C577.619629,856.485352 578.307373,871.968750 579.058655,887.379822 
	C579.258789,891.484924 579.511658,895.609192 580.116821,899.668457 
	C581.664673,910.051331 583.439758,920.400085 585.094788,930.767151 
	C586.466064,939.356812 586.812256,948.255127 589.339783,956.486267 
	C595.396667,976.210754 601.884766,995.849182 609.314636,1015.091431 
	C615.516663,1031.153564 621.984009,1047.339355 636.147156,1058.784058 
	C641.974548,1063.492920 655.991089,1066.038208 662.655090,1062.761353 
	C673.358032,1057.498291 676.863098,1041.882202 672.359558,1031.068115 
	C667.771240,1020.050659 662.105774,1009.457764 657.927795,998.298645 
	C649.936157,976.953491 640.047607,956.187195 637.836426,932.978088 
	C636.889709,923.041016 634.470825,913.251831 632.980164,903.356445 
	C631.776855,895.368042 630.962830,887.321045 629.934265,878.960205 
	C639.049438,880.336609 647.921204,881.053528 656.477783,883.093079 
	C676.578430,887.884277 696.771057,892.526855 716.485596,898.649048 
	C750.428650,909.189819 782.312439,924.539673 812.563049,943.191406 
	C837.713989,958.698792 860.608704,977.154968 882.005005,997.468140 
	C887.292297,1002.487854 892.077942,1008.055786 896.894958,1013.546509 
	C904.606384,1022.336426 912.802307,1030.803955 919.607971,1040.260864 
	C928.893860,1053.164307 937.362122,1066.688721 945.645447,1080.273315 
	C957.064636,1099.000732 966.042542,1118.984741 972.911499,1139.767700 
	C977.994812,1155.147949 981.908020,1170.931885 985.892273,1186.650269 
	C987.612671,1193.437256 988.197021,1200.512329 989.253296,1207.177979 
	C974.202026,1198.805298 959.578308,1190.263672 944.580444,1182.439331 
	C928.913818,1174.265991 912.984558,1166.574585 896.977051,1159.085083 
	C888.811829,1155.264893 880.478333,1151.214844 871.773743,1149.259399 
	C853.450073,1145.143433 834.863281,1142.148682 816.321533,1139.073242 
	C805.934509,1137.350098 795.430237,1136.311401 784.961792,1135.112915 
	C780.215759,1134.569580 775.409180,1134.553345 770.664185,1134.003174 
	C762.918091,1133.104980 755.227173,1131.601196 747.463013,1131.022705 
	C738.427124,1130.349365 729.331116,1130.038696 720.272461,1130.200195 
	C695.384277,1130.643555 670.413269,1128.420654 645.642883,1133.014526 
	C632.785461,1135.399048 619.801453,1137.110718 607.556946,1141.970215 
	C591.748352,1148.244019 575.901184,1154.434937 560.234985,1161.050659 
	C536.369751,1171.128418 512.608887,1181.594971 490.771667,1195.617310 
	C477.815094,1203.937012 465.955872,1213.956055 453.511261,1223.085571 
	C440.651886,1232.519409 427.593872,1241.609985 417.328064,1254.159424 
	C409.248962,1264.035645 409.163574,1276.597046 415.673584,1286.033936 
	C420.640289,1293.233643 426.166748,1300.138916 432.118958,1306.548462 
	C445.466553,1320.921997 460.103455,1333.831909 476.307831,1345.044678 
	C499.463165,1361.067139 524.144714,1374.090942 550.166626,1384.701538 
	C575.124390,1394.878418 600.945923,1402.377808 627.267944,1407.773682 
	C645.620422,1411.535767 664.314453,1413.858032 682.956970,1415.902832 
	C696.520447,1417.390381 710.248901,1417.879761 723.903870,1417.881958 
	C736.737854,1417.884033 749.571533,1416.656128 762.406128,1415.984497 
	C768.646301,1415.657959 774.950134,1415.814697 781.116516,1414.964722 
	C793.748901,1413.223633 806.418640,1411.463013 818.870544,1408.773193 
	C836.507446,1404.963623 854.242676,1401.198486 871.420227,1395.779663 
	C891.449524,1389.461060 910.820740,1381.084106 930.692688,1374.223755 
	C937.765259,1371.781860 944.430054,1368.872192 948.853577,1363.059570 
	C954.122314,1356.136353 955.231201,1348.323364 952.273865,1339.466797 
	C946.722290,1322.840698 929.470886,1320.153931 918.011475,1324.757690 
	C909.732910,1328.083618 901.796814,1331.904663 892.681946,1332.124146 
	C891.724365,1332.147217 890.726013,1332.486206 889.832947,1332.876343 
	C879.035828,1337.592407 868.560425,1343.287109 857.409790,1346.903809 
	C829.571777,1355.933105 801.062683,1362.139404 771.729187,1363.952148 
	C756.310120,1364.904907 740.909058,1366.226318 725.478699,1366.882935 
	C718.108398,1367.196655 710.686584,1366.388062 703.291931,1366.013428 
	C698.040344,1365.747314 692.760132,1365.631104 687.554138,1364.966187 
	C675.963379,1363.485596 664.284607,1362.305542 652.871094,1359.910156 
	C632.992920,1355.738281 613.288025,1350.740967 592.681519,1345.983643 
M982.752075,1475.561157 
	C984.400146,1480.024902 985.090210,1480.138062 988.858826,1476.559937 
	C987.460327,1473.959839 986.244324,1470.716675 982.752075,1475.561157 
z"/>
<path fill="#FEA8D1" opacity="1.000000" stroke="none" 
	d="
M593.096008,1346.036621 
	C613.288025,1350.740967 632.992920,1355.738281 652.871094,1359.910156 
	C664.284607,1362.305542 675.963379,1363.485596 687.554138,1364.966187 
	C692.760132,1365.631104 698.040344,1365.747314 703.291931,1366.013428 
	C710.686584,1366.388062 718.108398,1367.196655 725.478699,1366.882935 
	C740.909058,1366.226318 756.310120,1364.904907 771.729187,1363.952148 
	C801.062683,1362.139404 829.571777,1355.933105 857.409790,1346.903809 
	C868.560425,1343.287109 879.035828,1337.592407 889.832947,1332.876343 
	C890.726013,1332.486206 891.724365,1332.147217 892.681946,1332.124146 
	C901.796814,1331.904663 909.732910,1328.083618 918.011475,1324.757690 
	C929.470886,1320.153931 946.722290,1322.840698 952.273865,1339.466797 
	C955.231201,1348.323364 954.122314,1356.136353 948.853577,1363.059570 
	C944.430054,1368.872192 937.765259,1371.781860 930.692688,1374.223755 
	C910.820740,1381.084106 891.449524,1389.461060 871.420227,1395.779663 
	C854.242676,1401.198486 836.507446,1404.963623 818.870544,1408.773193 
	C806.418640,1411.463013 793.748901,1413.223633 781.116516,1414.964722 
	C774.950134,1415.814697 768.646301,1415.657959 762.406128,1415.984497 
	C749.571533,1416.656128 736.737854,1417.884033 723.903870,1417.881958 
	C710.248901,1417.879761 696.520447,1417.390381 682.956970,1415.902832 
	C664.314453,1413.858032 645.620422,1411.535767 627.267944,1407.773682 
	C600.945923,1402.377808 575.124390,1394.878418 550.166626,1384.701538 
	C524.144714,1374.090942 499.463165,1361.067139 476.307831,1345.044678 
	C460.103455,1333.831909 445.466553,1320.921997 432.118958,1306.548462 
	C426.166748,1300.138916 420.640289,1293.233643 415.673584,1286.033936 
	C409.163574,1276.597046 409.248962,1264.035645 417.328064,1254.159424 
	C427.593872,1241.609985 440.651886,1232.519409 453.511261,1223.085571 
	C465.955872,1213.956055 477.815094,1203.937012 490.771667,1195.617310 
	C512.608887,1181.594971 536.369751,1171.128418 560.234985,1161.050659 
	C575.901184,1154.434937 591.748352,1148.244019 607.556946,1141.970215 
	C619.801453,1137.110718 632.785461,1135.399048 645.642883,1133.014526 
	C670.413269,1128.420654 695.384277,1130.643555 720.272461,1130.200195 
	C729.331116,1130.038696 738.427124,1130.349365 747.463013,1131.022705 
	C755.227173,1131.601196 762.918091,1133.104980 770.664185,1134.003174 
	C775.409180,1134.553345 780.215759,1134.569580 784.961792,1135.112915 
	C795.430237,1136.311401 805.934509,1137.350098 816.321533,1139.073242 
	C834.863281,1142.148682 853.450073,1145.143433 871.773743,1149.259399 
	C880.478333,1151.214844 888.811829,1155.264893 896.977051,1159.085083 
	C912.984558,1166.574585 928.913818,1174.265991 944.580444,1182.439331 
	C959.578308,1190.263672 974.202026,1198.805298 989.253296,1207.177979 
	C988.197021,1200.512329 987.612671,1193.437256 985.892273,1186.650269 
	C981.908020,1170.931885 977.994812,1155.147949 972.911499,1139.767700 
	C966.042542,1118.984741 957.064636,1099.000732 945.645447,1080.273315 
	C937.362122,1066.688721 928.893860,1053.164307 919.607971,1040.260864 
	C912.802307,1030.803955 904.606384,1022.336426 896.894958,1013.546509 
	C892.077942,1008.055786 887.292297,1002.487854 882.005005,997.468140 
	C860.608704,977.154968 837.713989,958.698792 812.563049,943.191406 
	C782.312439,924.539673 750.428650,909.189819 716.485596,898.649048 
	C696.771057,892.526855 676.578430,887.884277 656.477783,883.093079 
	C647.921204,881.053528 639.049438,880.336609 629.934265,878.960205 
	C630.962830,887.321045 631.776855,895.368042 632.980164,903.356445 
	C634.470825,913.251831 636.889709,923.041016 637.836426,932.978088 
	C640.047607,956.187195 649.936157,976.953491 657.927795,998.298645 
	C662.105774,1009.457764 667.771240,1020.050659 672.359558,1031.068115 
	C676.863098,1041.882202 673.358032,1057.498291 662.655090,1062.761353 
	C655.991089,1066.038208 641.974548,1063.492920 636.147156,1058.784058 
	C621.984009,1047.339355 615.516663,1031.153564 609.314636,1015.091431 
	C601.884766,995.849182 595.396667,976.210754 589.339783,956.486267 
	C586.812256,948.255127 586.466064,939.356812 585.094788,930.767151 
	C583.439758,920.400085 581.664673,910.051331 580.116821,899.668457 
	C579.511658,895.609192 579.258789,891.484924 579.058655,887.379822 
	C578.307373,871.968750 577.619629,856.485352 583.159485,841.709229 
	C589.549438,824.665833 602.065308,820.463379 617.451721,822.270325 
	C631.106689,823.874023 644.688477,826.355347 658.167908,829.108704 
	C666.805176,830.872925 675.145203,834.041382 683.710266,836.219299 
	C709.726135,842.834534 735.576721,849.970276 760.484802,860.110107 
	C788.054199,871.333191 814.872009,884.090820 839.802246,900.476440 
	C852.644531,908.917236 865.222290,917.762573 877.854736,926.518738 
	C880.467468,928.329773 882.793152,930.554810 886.408081,933.546448 
	C885.336731,930.048462 884.563232,927.956116 884.058899,925.800720 
	C881.880493,916.490662 883.246338,907.281860 885.039795,898.106689 
	C887.013184,888.010254 888.507141,877.780884 891.166626,867.865967 
	C896.849060,846.681213 904.858643,826.358582 913.851562,806.302429 
	C928.577332,773.460815 947.091736,742.894714 967.489380,713.435730 
	C976.574097,700.315369 987.553101,688.516541 996.844238,675.525696 
	C1003.097412,666.782654 1011.359375,661.810425 1021.246643,659.570923 
	C1027.662354,658.117676 1034.835693,657.749573 1040.594727,661.815125 
	C1045.833008,665.513184 1050.498047,670.124817 1054.996582,674.742126 
	C1059.903320,679.778381 1064.648193,685.041260 1068.895874,690.636353 
	C1077.789307,702.350830 1086.675781,714.100769 1094.912964,726.277283 
	C1116.868042,758.731995 1133.148315,794.046448 1144.777344,831.334900 
	C1150.712280,850.365417 1154.709229,870.040100 1158.826172,889.582886 
	C1161.282593,901.244385 1162.574219,913.182617 1163.834229,925.055481 
	C1164.944458,935.519043 1165.385986,946.059204 1165.932129,956.575439 
	C1166.399658,965.574219 1166.968872,974.593750 1166.806030,983.591736 
	C1166.649536,992.242798 1165.619507,1000.878418 1164.958618,1009.519714 
	C1164.310669,1017.992493 1163.898804,1026.493530 1162.915771,1034.927612 
	C1161.886108,1043.761719 1160.781738,1052.638184 1158.854248,1061.305664 
	C1155.245483,1077.533325 1151.362183,1093.717407 1146.977905,1109.751465 
	C1137.894043,1142.972168 1124.599854,1174.521484 1107.739624,1204.531616 
	C1100.674316,1217.107422 1093.051025,1229.369629 1085.402222,1242.244263 
	C1091.957642,1241.504028 1098.512329,1241.394653 1104.752808,1239.938232 
	C1121.887329,1235.939697 1139.105469,1232.071045 1155.893066,1226.868408 
	C1179.572144,1219.529907 1201.989014,1208.889526 1223.043579,1195.885742 
	C1237.741455,1186.807983 1251.677979,1176.396729 1265.372192,1165.826904 
	C1276.223511,1157.451294 1286.774536,1148.510986 1296.431885,1138.800171 
	C1318.213501,1116.897827 1337.593140,1092.881958 1353.739380,1066.539673 
	C1375.926147,1030.342041 1392.601807,991.630737 1402.756958,950.336487 
	C1405.979614,937.231567 1407.765259,923.760742 1409.926636,910.411682 
	C1411.408691,901.258545 1412.403809,892.026489 1413.745605,881.850830 
	C1410.830688,881.850830 1408.742676,881.693909 1406.684326,881.875061 
	C1386.135864,883.684021 1365.697388,885.966797 1345.495239,890.572937 
	C1325.403320,895.153992 1305.801025,901.046265 1286.773438,908.852417 
	C1265.336304,917.647095 1245.214355,928.886414 1226.683960,942.806335 
	C1219.625488,948.108643 1213.395752,954.513916 1206.340698,959.821533 
	C1193.318970,969.618042 1170.717651,962.286682 1167.657104,943.811829 
	C1166.031006,933.995972 1169.286011,926.592041 1175.502441,920.268250 
	C1198.194458,897.184692 1225.554932,880.687683 1254.617310,867.240662 
	C1281.102173,854.986328 1308.709351,845.506409 1337.537109,840.106506 
	C1350.629150,837.654175 1363.680054,834.839600 1376.869263,833.093933 
	C1387.420898,831.697388 1398.155518,831.697571 1408.805176,831.018494 
	C1413.265259,830.734131 1417.737061,829.830200 1422.165894,830.031738 
	C1429.830444,830.380676 1437.648926,830.575867 1445.069702,832.283508 
	C1455.685669,834.726196 1460.842163,843.132690 1464.002686,852.936768 
	C1468.021851,865.404785 1464.702881,877.832275 1463.847900,890.272766 
	C1463.568481,894.338989 1463.292236,898.408813 1462.858765,902.460388 
	C1461.946899,910.981689 1461.500366,919.605164 1459.832764,927.981628 
	C1456.962402,942.400696 1454.100708,956.907593 1449.790894,970.933716 
	C1443.364868,991.847534 1436.518677,1012.712463 1428.337891,1032.987671 
	C1416.842285,1061.478882 1401.271606,1087.926758 1383.981201,1113.312256 
	C1379.957886,1119.218994 1375.424927,1124.778809 1371.647095,1129.805542 
	C1393.042603,1133.547119 1414.601196,1136.655396 1435.826904,1141.289185 
	C1447.702515,1143.881470 1459.304810,1148.348511 1470.534180,1153.135132 
	C1488.880737,1160.955200 1507.164185,1169.068604 1524.845947,1178.265991 
	C1545.798096,1189.164795 1566.410767,1200.812256 1586.536499,1213.167725 
	C1598.486450,1220.504150 1609.403564,1229.592896 1620.419189,1238.353760 
	C1626.665405,1243.321533 1632.994507,1248.582886 1637.831055,1254.837280 
	C1646.281006,1265.764404 1644.989136,1280.171631 1634.666870,1290.867432 
	C1627.580078,1298.210693 1620.363159,1305.435669 1613.021973,1312.524536 
	C1596.367798,1328.606445 1578.283447,1342.888550 1557.895996,1353.940186 
	C1541.291748,1362.941284 1524.693481,1372.115479 1507.420532,1379.678101 
	C1487.256958,1388.506348 1466.570923,1396.282227 1445.709229,1403.323242 
	C1433.053955,1407.594604 1419.935181,1410.637817 1406.441650,1412.193359 
	C1396.421997,1413.348511 1386.721069,1417.118164 1376.807983,1419.421143 
	C1372.876831,1420.334351 1368.767212,1420.669312 1364.719727,1420.856201 
	C1351.346924,1421.473755 1337.968628,1422.048096 1324.585938,1422.349243 
	C1317.039551,1422.519043 1309.480957,1422.046997 1301.927002,1421.996948 
	C1293.067871,1421.938354 1284.168213,1422.558716 1275.358887,1421.904419 
	C1265.512085,1421.173096 1255.657104,1419.798706 1245.965332,1417.892700 
	C1227.286987,1414.219360 1208.483154,1410.823486 1190.185547,1405.692749 
	C1176.119995,1401.748535 1162.531494,1395.814941 1149.132446,1389.862305 
	C1135.432251,1383.775757 1122.077393,1376.858398 1108.836426,1369.806885 
	C1095.274414,1362.584351 1081.946167,1354.926270 1070.184570,1344.823730 
	C1067.056885,1342.137207 1062.965210,1340.598999 1059.695435,1338.047363 
	C1044.327026,1326.054932 1030.566406,1312.488525 1017.774841,1297.685181 
	C1009.445557,1288.045776 998.879700,1280.319092 989.184204,1271.886841 
	C981.676697,1265.357666 974.081055,1258.916992 966.289490,1252.733398 
	C962.990173,1250.114868 959.166992,1248.111938 955.446350,1246.077148 
	C943.349731,1239.461426 931.320251,1232.703613 919.018860,1226.487427 
	C906.775452,1220.300049 893.949951,1215.226685 881.902161,1208.700562 
	C868.989502,1201.706055 855.390503,1197.493286 841.048889,1195.015015 
	C831.080627,1193.292480 821.236389,1190.839233 811.256287,1189.203247 
	C804.029541,1188.018555 796.664551,1187.694824 789.372253,1186.887939 
	C775.104370,1185.309082 760.846130,1183.642944 746.578247,1182.063965 
	C744.764099,1181.863159 742.916138,1181.959961 741.083679,1181.933594 
	C718.875183,1181.612915 696.648560,1180.596558 674.463196,1181.171021 
	C651.900757,1181.755371 629.962097,1186.600708 609.103149,1195.533936 
	C592.765503,1202.530884 576.252075,1209.196533 560.307068,1217.010010 
	C543.454712,1225.267944 526.822815,1234.117188 510.785706,1243.847168 
	C500.360596,1250.171997 491.166138,1258.527100 481.430695,1265.986084 
	C478.293945,1268.389404 475.190216,1270.835815 472.047882,1273.280640 
	C488.137665,1290.803589 506.857819,1304.363159 526.881409,1316.443726 
	C547.663025,1328.981934 570.064270,1337.665039 593.096008,1346.036621 
M1436.599365,1194.890747 
	C1435.678955,1194.577393 1434.779419,1194.164917 1433.835083,1193.965820 
	C1423.129639,1191.709595 1412.474243,1189.146362 1401.692261,1187.341064 
	C1388.743774,1185.172852 1375.701172,1183.531372 1362.663452,1181.959229 
	C1359.841064,1181.618896 1356.874146,1182.720093 1353.959961,1182.852539 
	C1344.395874,1183.287354 1334.820557,1183.492676 1325.262085,1184.014648 
	C1323.605225,1184.105225 1321.735962,1184.972900 1320.427124,1186.045654 
	C1308.433838,1195.876221 1296.726807,1206.063477 1284.582031,1215.700317 
	C1261.351562,1234.133667 1235.678711,1248.568359 1208.824951,1260.989502 
	C1186.864624,1271.147095 1164.090332,1279.084595 1140.587769,1284.655029 
	C1127.166626,1287.836182 1113.405518,1289.587402 1099.791016,1291.945679 
	C1094.998657,1292.775757 1090.187256,1293.496094 1084.151489,1294.464233 
	C1086.257324,1295.520508 1087.173462,1295.830933 1087.918823,1296.375244 
	C1115.592651,1316.585327 1145.491943,1332.860474 1176.872314,1346.464355 
	C1185.708984,1350.295166 1194.573242,1354.400879 1203.829834,1356.848511 
	C1219.189575,1360.910278 1234.822021,1364.021240 1250.442383,1366.992554 
	C1265.789185,1369.911865 1281.244141,1371.748413 1296.999634,1371.040527 
	C1315.062866,1370.228760 1333.166016,1369.943359 1351.247925,1370.057617 
	C1360.315918,1370.114868 1368.862915,1368.447388 1377.552124,1366.223145 
	C1386.691650,1363.883911 1396.222534,1363.089111 1405.388672,1360.832642 
	C1417.063354,1357.958252 1428.806274,1355.001587 1440.054321,1350.826294 
	C1465.443481,1341.402466 1490.653442,1331.595337 1514.394287,1318.189331 
	C1531.454590,1308.555664 1549.454346,1300.533081 1564.569458,1287.788696 
	C1570.417114,1282.858276 1575.617188,1277.159668 1581.063232,1271.858643 
	C1559.514648,1254.659058 1535.395386,1242.228882 1511.755371,1229.000610 
	C1487.884766,1215.642822 1463.406372,1203.654663 1436.599365,1194.890747 
M1102.110229,1080.610229 
	C1105.084717,1065.259644 1108.734619,1050.001587 1110.855591,1034.533936 
	C1113.280762,1016.846863 1114.800781,998.999695 1115.832031,981.171082 
	C1116.450928,970.473999 1115.866699,959.638428 1114.955933,948.938904 
	C1113.754639,934.828064 1112.438110,920.651794 1109.835815,906.753784 
	C1106.320068,887.976929 1102.303467,869.220642 1097.113892,850.847534 
	C1089.350464,823.361816 1077.627563,797.456970 1063.317017,772.669373 
	C1052.539917,754.002014 1040.001709,736.675476 1026.593506,720.191467 
	C1023.798340,723.526978 1020.866028,726.564758 1018.459045,729.973511 
	C1003.145508,751.660461 988.242554,773.570251 975.430115,796.921326 
	C963.452393,818.751160 953.307861,841.313171 945.135681,864.749878 
	C939.014038,882.305969 934.806702,900.388794 933.908936,919.075989 
	C933.446594,928.698547 929.496521,936.006653 921.214233,941.339661 
	C913.751404,946.145081 906.179504,945.264221 898.171936,943.051819 
	C979.484192,1015.460938 1028.949097,1104.450684 1042.475464,1213.133179 
	C1050.476562,1201.042358 1057.680542,1189.020752 1064.600586,1176.837769 
	C1075.007446,1158.516479 1083.320190,1139.233765 1090.030029,1119.279175 
	C1094.246582,1106.739136 1098.093994,1094.074951 1102.110229,1080.610229 
M885.886780,933.248474 
	C886.473206,933.305359 887.059692,933.362305 887.646118,933.419189 
	C887.197998,933.111389 886.749939,932.803528 885.886780,933.248474 
z"/>
<path fill="#FFC8EC" opacity="1.000000" stroke="none" 
	d="
M982.839355,1475.220459 
	C986.244324,1470.716675 987.460327,1473.959839 988.858398,1476.561279 
	C985.090210,1480.138062 984.400146,1480.024902 982.839355,1475.220459 
z"/>
<path fill="#000000" opacity="1.000000" stroke="none" 
	d="
M1437.017334,1194.893555 
	C1463.406372,1203.654663 1487.884766,1215.642822 1511.755371,1229.000610 
	C1535.395386,1242.228882 1559.514648,1254.659058 1581.063232,1271.858643 
	C1575.617188,1277.159668 1570.417114,1282.858276 1564.569458,1287.788696 
	C1549.454346,1300.533081 1531.454590,1308.555664 1514.394287,1318.189331 
	C1490.653442,1331.595337 1465.443481,1341.402466 1440.054321,1350.826294 
	C1428.806274,1355.001587 1417.063354,1357.958252 1405.388672,1360.832642 
	C1396.222534,1363.089111 1386.691650,1363.883911 1377.552124,1366.223145 
	C1368.862915,1368.447388 1360.315918,1370.114868 1351.247925,1370.057617 
	C1333.166016,1369.943359 1315.062866,1370.228760 1296.999634,1371.040527 
	C1281.244141,1371.748413 1265.789185,1369.911865 1250.442383,1366.992554 
	C1234.822021,1364.021240 1219.189575,1360.910278 1203.829834,1356.848511 
	C1194.573242,1354.400879 1185.708984,1350.295166 1176.872314,1346.464355 
	C1145.491943,1332.860474 1115.592651,1316.585327 1087.918823,1296.375244 
	C1087.173462,1295.830933 1086.257324,1295.520508 1084.151489,1294.464233 
	C1090.187256,1293.496094 1094.998657,1292.775757 1099.791016,1291.945679 
	C1113.405518,1289.587402 1127.166626,1287.836182 1140.587769,1284.655029 
	C1164.090332,1279.084595 1186.864624,1271.147095 1208.824951,1260.989502 
	C1235.678711,1248.568359 1261.351562,1234.133667 1284.582031,1215.700317 
	C1296.726807,1206.063477 1308.433838,1195.876221 1320.427124,1186.045654 
	C1321.735962,1184.972900 1323.605225,1184.105225 1325.262085,1184.014648 
	C1334.820557,1183.492676 1344.395874,1183.287354 1353.959961,1182.852539 
	C1356.874146,1182.720093 1359.841064,1181.618896 1362.663452,1181.959229 
	C1375.701172,1183.531372 1388.743774,1185.172852 1401.692261,1187.341064 
	C1412.474243,1189.146362 1423.129639,1191.709595 1433.835083,1193.965820 
	C1434.779419,1194.164917 1435.678955,1194.577393 1437.017334,1194.893555 
z"/>
<path fill="#000000" opacity="1.000000" stroke="none" 
	d="
M1102.108643,1081.038330 
	C1098.093994,1094.074951 1094.246582,1106.739136 1090.030029,1119.279175 
	C1083.320190,1139.233765 1075.007446,1158.516479 1064.600586,1176.837769 
	C1057.680542,1189.020752 1050.476562,1201.042358 1042.475464,1213.133179 
	C1028.949097,1104.450684 979.484192,1015.460938 898.171936,943.051819 
	C906.179504,945.264221 913.751404,946.145081 921.214233,941.339661 
	C929.496521,936.006653 933.446594,928.698547 933.908936,919.075989 
	C934.806702,900.388794 939.014038,882.305969 945.135681,864.749878 
	C953.307861,841.313171 963.452393,818.751160 975.430115,796.921326 
	C988.242554,773.570251 1003.145508,751.660461 1018.459045,729.973511 
	C1020.866028,726.564758 1023.798340,723.526978 1026.593506,720.191467 
	C1040.001709,736.675476 1052.539917,754.002014 1063.317017,772.669373 
	C1077.627563,797.456970 1089.350464,823.361816 1097.113892,850.847534 
	C1102.303467,869.220642 1106.320068,887.976929 1109.835815,906.753784 
	C1112.438110,920.651794 1113.754639,934.828064 1114.955933,948.938904 
	C1115.866699,959.638428 1116.450928,970.473999 1115.832031,981.171082 
	C1114.800781,998.999695 1113.280762,1016.846863 1110.855591,1034.533936 
	C1108.734619,1050.001587 1105.084717,1065.259644 1102.108643,1081.038330 
z"/>
<path fill="#000000" opacity="1.000000" stroke="none" 
	d="
M886.094299,932.872070 
	C886.749939,932.803528 887.197998,933.111389 887.646118,933.419189 
	C887.059692,933.362305 886.473206,933.305359 886.094299,932.872070 
z"/>
</svg>